<svg width="401" height="400" viewBox="0 0 401 400" fill="none" xmlns="http://www.w3.org/2000/svg">
<rect x="0.988281" width="400" height="400" rx="200" fill="url(#paint0_linear_387_13582)"/>
<path d="M163.461 259.206H208.758V307.081H115.586V141.143H163.461V259.206ZM228.942 259.207H208.763V210.983H228.942V259.207ZM228.943 92.9189C250.994 92.919 272.142 101.679 287.734 117.271C303.327 132.864 312.087 154.011 312.087 176.062C312.087 198.114 303.327 219.262 287.734 234.854C272.142 250.447 250.994 259.206 228.943 259.206V210.983C238.205 210.983 247.087 207.304 253.636 200.755C260.184 194.206 263.863 185.324 263.863 176.062C263.863 166.801 260.185 157.919 253.636 151.37C247.087 144.821 238.205 141.143 228.943 141.143V92.9189ZM228.942 141.143H163.465V92.9189H228.942V141.143Z" fill="white"/>
<defs>
<linearGradient id="paint0_linear_387_13582" x1="10.9883" y1="8.33332" x2="349.322" y2="366.667" gradientUnits="userSpaceOnUse">
<stop stop-color="#FF690A"/>
<stop offset="0.39" stop-color="#B01C00"/>
<stop offset="0.88" stop-color="#FF000F"/>
</linearGradient>
</defs>
</svg>
